<?xml version="1.0" standalone="no"?>
<!DOCTYPE svg PUBLIC "-//W3C//DTD SVG 20010904//EN"
 "http://www.w3.org/TR/2001/REC-SVG-20010904/DTD/svg10.dtd">
<svg version="1.0" xmlns="http://www.w3.org/2000/svg"
 width="560.000000pt" height="560.000000pt" viewBox="0 0 560.000000 560.000000"
 preserveAspectRatio="xMidYMid meet">
<metadata>
Created by potrace 1.14, written by Peter Selinger 2001-2017
</metadata>
<g transform="translate(0.000000,560.000000) scale(0.100000,-0.100000)"
fill="#000000" stroke="none">
<path d="M3085 5230 c-60 -28 -201 -62 -305 -75 -108 -12 -126 -14 -185 -20
-257 -26 -405 -76 -570 -193 -305 -217 -407 -482 -401 -1049 l2 -212 -52 -25
c-28 -14 -56 -31 -61 -38 -15 -18 -23 -112 -29 -342 -4 -168 -3 -207 11 -242
20 -52 79 -116 125 -133 62 -23 63 -25 81 -117 63 -324 272 -611 557 -765 48
-26 62 -39 62 -56 0 -13 -6 -23 -12 -24 -7 0 -22 -2 -33 -4 -11 -2 -38 -6 -60
-10 -307 -47 -491 -168 -527 -348 l-14 -67 -88 -45 c-353 -182 -608 -484 -725
-860 -46 -150 -61 -256 -61 -441 l0 -164 2001 0 2002 0 -6 192 c-8 273 -47
430 -159 649 -136 266 -363 493 -624 623 l-92 46 -7 48 c-20 136 -119 241
-290 305 -81 31 -267 73 -337 77 -5 0 -8 11 -8 23 0 16 9 28 27 36 15 7 64 36
108 65 249 163 427 427 484 720 10 54 23 92 32 96 79 37 98 50 127 80 59 64
64 93 58 316 -7 247 -14 325 -32 345 -7 8 -43 28 -80 45 l-66 29 7 60 c4 33 8
148 10 255 3 220 -11 356 -50 494 -52 182 -127 282 -327 440 -54 42 -98 82
-98 89 0 7 9 37 19 67 32 90 14 98 -111 51 l-77 -29 13 33 c14 33 7 59 -16 61
-7 0 -43 -15 -80 -33 -37 -18 -69 -33 -72 -33 -2 0 5 17 17 38 22 42 18 73
-10 71 -10 0 -45 -13 -78 -29z"/>
</g>
</svg>
